# xmcd
#
# Track frame offsets:
# 150
# 17952
# 36587
# 63855
# 74645
# 89810
# 102392
# 141977
# 156837
#
# Disc length: 2375 seconds
#
#
# Revision: 0
# Processed by: cddbd v1.5.2PL0 Copyright (c) Steve Scherf et al.
# Submitted via: FreeRIP 2.944 
#
DISCID=8a094509
DTITLE=Soulmates - Mississippi Soupbone
DYEAR=1900
DGENRE=Blues
TTITLE0=Mississippi Soupbone
TTITLE1=San Ho Zay
TTITLE2=Please Help Me
TTITLE3=Boyz Will Be Boyz
TTITLE4=All Of The Time
TTITLE5=The Cost Of Your Love
TTITLE6=Little Red Rooster
TTITLE7=Nothing You Can Do
TTITLE8=Mustang Sally
EXTD=First generation Studios Minnetonka MN
EXTT0=
EXTT1=
EXTT2=
EXTT3=
EXTT4=
EXTT5=
EXTT6=
EXTT7=
EXTT8=
PLAYORDER=
